<svg xmlns="http://www.w3.org/2000/svg" width="2752" height="2064" viewBox="0 0 2752 2064" version="1.1"><path d="M 1410.500 686.269 C 1408.850 687.482, 1406.713 689.380, 1405.752 690.487 C 1401.112 695.829, 1399.002 698.564, 1399.001 699.239 C 1399 700.119, 1396.196 703.658, 1393.750 705.865 C 1392.787 706.734, 1392 707.854, 1392 708.355 C 1392 708.856, 1391.211 709.993, 1390.246 710.883 C 1389.281 711.772, 1386.867 714.525, 1384.880 717 C 1382.894 719.475, 1378.621 724.212, 1375.384 727.528 C 1372.148 730.843, 1367.394 735.905, 1364.820 738.778 C 1362.247 741.650, 1359.697 744, 1359.154 744 C 1358.611 744, 1358.017 744.337, 1357.833 744.750 C 1357.650 745.163, 1355.025 747.585, 1352 750.132 C 1348.975 752.680, 1345.042 756.168, 1343.259 757.882 C 1341.477 759.597, 1339.729 761, 1339.376 761 C 1339.023 761, 1338.007 761.833, 1337.117 762.852 C 1336.228 763.871, 1334.150 765.416, 1332.500 766.286 C 1330.850 767.156, 1328.330 769.135, 1326.901 770.684 C 1325.472 772.233, 1322.997 774.172, 1321.401 774.993 C 1319.805 775.815, 1317.825 777.167, 1317 778 C 1316.175 778.833, 1314.331 780.113, 1312.902 780.845 C 1311.473 781.577, 1309.040 783.261, 1307.496 784.588 C 1305.952 785.914, 1304.421 787.001, 1304.094 787.002 C 1303.768 787.004, 1301.925 788.353, 1300 790 C 1298.075 791.647, 1295.750 792.996, 1294.833 792.998 C 1293.917 792.999, 1293.017 793.337, 1292.833 793.750 C 1292.453 794.605, 1286.357 799, 1285.551 799 C 1285.259 799, 1281.978 800.922, 1278.260 803.270 C 1274.542 805.619, 1269.250 808.593, 1266.500 809.879 C 1263.750 811.165, 1260.825 812.619, 1260 813.111 C 1259.175 813.603, 1257.582 814.407, 1256.459 814.898 C 1255.336 815.390, 1253.819 816.514, 1253.086 817.396 C 1252.354 818.278, 1251.149 819, 1250.408 819 C 1249.667 819, 1247.458 819.900, 1245.500 821 C 1243.542 822.100, 1241.278 823, 1240.470 823 C 1239.661 823, 1239 823.450, 1239 824 C 1239 824.550, 1238.100 825, 1237 825 C 1235.900 825, 1235 825.450, 1235 826 C 1235 826.550, 1234.319 827, 1233.486 827 C 1232.654 827, 1231.191 827.432, 1230.236 827.961 C 1229.281 828.490, 1225.800 830.093, 1222.500 831.523 C 1219.200 832.954, 1215.719 834.546, 1214.764 835.062 C 1213.809 835.578, 1212.346 836, 1211.514 836 C 1210.681 836, 1210 836.450, 1210 837 C 1210 837.550, 1208.902 838, 1207.559 838 C 1206.216 838, 1204.840 838.450, 1204.500 839 C 1204.160 839.550, 1202.874 840, 1201.641 840 C 1200.408 840, 1198.972 840.358, 1198.450 840.796 C 1197.927 841.234, 1195.700 842.163, 1193.500 842.862 C 1189.068 844.269, 1187.277 844.953, 1181.716 847.361 C 1179.635 848.263, 1177.047 849, 1175.966 849 C 1174.885 849, 1174 849.450, 1174 850 C 1174 850.550, 1172.650 851, 1171 851 C 1169.350 851, 1168 851.450, 1168 852 C 1168 852.550, 1166.425 853, 1164.500 853 C 1162.575 853, 1161 853.450, 1161 854 C 1161 854.550, 1159.452 855, 1157.559 855 C 1155.666 855, 1153.840 855.450, 1153.500 856 C 1153.160 856.550, 1151.360 857, 1149.500 857 C 1147.640 857, 1145.840 857.450, 1145.500 858 C 1145.160 858.550, 1143.371 859, 1141.524 859 C 1139.678 859, 1138.013 859.460, 1137.826 860.021 C 1137.639 860.583, 1135.783 861.107, 1133.701 861.185 C 1131.619 861.263, 1129.703 861.672, 1129.442 862.094 C 1129.182 862.515, 1126.495 863.169, 1123.471 863.547 C 1120.447 863.925, 1117.728 864.631, 1117.428 865.117 C 1117.128 865.603, 1114.884 866, 1112.441 866 C 1109.998 866, 1108 866.450, 1108 867 C 1108 867.564, 1105.167 868, 1101.500 868 C 1097.925 868, 1095 868.414, 1095 868.921 C 1095 869.428, 1091.737 870.095, 1087.750 870.405 C 1083.763 870.714, 1075.550 871.429, 1069.500 871.994 C 1063.450 872.558, 1051.375 873.353, 1042.667 873.760 C 1029.286 874.385, 1026.635 874.771, 1025.556 876.250 C 1024.854 877.212, 1023.560 878, 1022.681 878 C 1021.802 878, 1019.500 878.788, 1017.566 879.750 C 1014.390 881.331, 1014.047 881.906, 1014.025 885.691 C 1014.011 887.996, 1014.450 890.160, 1015 890.500 C 1015.550 890.840, 1016.015 891.879, 1016.033 892.809 C 1016.052 893.739, 1016.852 895.400, 1017.811 896.500 C 1019.705 898.671, 1026 902.505, 1026 901.487 C 1026 900.122, 1040.881 913.285, 1046.953 920.021 C 1053.376 927.148, 1055.396 929.917, 1056.601 933.250 C 1056.949 934.212, 1057.631 935, 1058.117 935 C 1058.602 935, 1059 935.675, 1059 936.500 C 1059 937.325, 1059.450 938, 1060 938 C 1060.550 938, 1061 938.620, 1061 939.378 C 1061 940.135, 1061.670 941.311, 1062.489 941.991 C 1063.308 942.671, 1063.763 943.575, 1063.500 944 C 1063.237 944.425, 1063.692 945.329, 1064.511 946.009 C 1065.330 946.689, 1066 948.090, 1066 949.122 C 1066 950.155, 1066.450 951, 1067 951 C 1067.550 951, 1068 952.125, 1068 953.500 C 1068 954.875, 1068.450 956, 1069 956 C 1069.550 956, 1070 956.705, 1070 957.566 C 1070 958.427, 1070.542 960.114, 1071.205 961.316 C 1071.867 962.517, 1072.570 964.625, 1072.766 966 C 1072.963 967.375, 1073.546 968.927, 1074.062 969.450 C 1074.578 969.972, 1075 971.633, 1075 973.141 C 1075 974.649, 1075.450 976.160, 1076 976.500 C 1076.550 976.840, 1077 979.090, 1077 981.500 C 1077 983.910, 1077.450 986.160, 1078 986.500 C 1078.550 986.840, 1079 989.596, 1079 992.625 C 1079 995.653, 1079.530 999.114, 1080.179 1000.316 C 1081.535 1002.828, 1081.645 1050.187, 1080.300 1052.264 C 1079.860 1052.944, 1079.153 1057.325, 1078.729 1062 C 1077.129 1079.652, 1076.798 1082, 1075.911 1082 C 1075.410 1082, 1075 1084.160, 1075 1086.800 C 1075 1089.440, 1074.544 1092.056, 1073.988 1092.612 C 1073.431 1093.169, 1072.816 1095.503, 1072.622 1097.798 C 1072.427 1100.094, 1071.814 1102.541, 1071.260 1103.236 C 1070.258 1104.492, 1069.389 1108.065, 1068.338 1115.250 C 1068.037 1117.313, 1067.387 1119, 1066.895 1119 C 1066.403 1119, 1066 1120.537, 1066 1122.417 C 1066 1124.296, 1065.531 1125.990, 1064.957 1126.181 C 1064.383 1126.372, 1063.716 1128.095, 1063.474 1130.009 C 1063.231 1131.923, 1062.576 1133.641, 1062.017 1133.828 C 1061.457 1134.014, 1061 1135.479, 1061 1137.083 C 1061 1138.688, 1060.550 1140, 1060 1140 C 1059.450 1140, 1059 1141.350, 1059 1143 C 1059 1144.650, 1058.550 1146, 1058 1146 C 1057.450 1146, 1057 1147.350, 1057 1149 C 1057 1150.650, 1056.580 1152, 1056.067 1152 C 1055.554 1152, 1054.851 1153.013, 1054.505 1154.250 C 1053.828 1156.666, 1052.311 1160.430, 1050.883 1163.236 C 1050.397 1164.191, 1050 1165.879, 1050 1166.986 C 1050 1168.094, 1049.550 1169, 1049 1169 C 1048.450 1169, 1048 1170.125, 1048 1171.500 C 1048 1172.875, 1047.586 1174, 1047.079 1174 C 1046.573 1174, 1045.862 1175.350, 1045.500 1177 C 1045.138 1178.650, 1044.427 1180, 1043.921 1180 C 1043.414 1180, 1043 1180.873, 1043 1181.941 C 1043 1183.009, 1042.550 1184.160, 1042 1184.500 C 1041.450 1184.840, 1041 1185.991, 1041 1187.059 C 1041 1188.127, 1040.550 1189, 1040 1189 C 1039.450 1189, 1038.998 1189.563, 1038.995 1190.250 C 1038.992 1190.938, 1037.417 1194.565, 1035.495 1198.311 C 1033.573 1202.057, 1032 1205.769, 1032 1206.561 C 1032 1207.352, 1031.550 1208, 1031 1208 C 1030.450 1208, 1030 1208.620, 1030 1209.378 C 1030 1210.135, 1029.330 1211.311, 1028.511 1211.991 C 1027.692 1212.671, 1027.249 1213.595, 1027.527 1214.044 C 1027.805 1214.494, 1027.604 1215.127, 1027.080 1215.451 C 1026.555 1215.775, 1025.496 1217.268, 1024.725 1218.770 C 1023.344 1221.462, 1016.732 1233.655, 1014.597 1237.449 C 1013.994 1238.521, 1012.718 1240.288, 1011.761 1241.375 C 1010.805 1242.463, 1009.762 1244.173, 1009.444 1245.176 C 1009.126 1246.179, 1008.446 1247, 1007.933 1247 C 1007.420 1247, 1007 1247.900, 1007 1249 C 1007 1250.100, 1006.550 1251, 1006 1251 C 1005.450 1251, 1005 1251.590, 1005 1252.311 C 1005 1253.033, 1004.100 1254.589, 1003 1255.770 C 1001.900 1256.950, 1001 1258.277, 1001 1258.718 C 1001 1259.160, 999.875 1260.734, 998.500 1262.217 C 997.125 1263.699, 996 1265.442, 996 1266.089 C 996 1266.736, 995.212 1268, 994.250 1268.897 C 992.159 1270.847, 990.162 1273.846, 989.354 1276.250 C 989.031 1277.213, 988.369 1278, 987.883 1278 C 987.398 1278, 987 1278.675, 987 1279.500 C 987 1280.325, 986.550 1281, 986 1281 C 985.450 1281, 985 1281.843, 985 1282.874 C 985 1283.905, 983.425 1286.468, 981.500 1288.570 C 979.575 1290.671, 978 1292.823, 978 1293.351 C 978 1293.879, 976.875 1295.786, 975.500 1297.589 C 974.125 1299.392, 973 1301.534, 973 1302.350 C 973 1303.166, 972.490 1304.003, 971.867 1304.211 C 971.185 1304.438, 970.754 1306.935, 970.786 1310.479 C 970.831 1315.425, 971.213 1316.662, 973.170 1318.192 C 974.589 1319.302, 976.282 1319.772, 977.500 1319.394 C 978.600 1319.052, 981.300 1318.553, 983.500 1318.284 C 985.700 1318.015, 987.928 1317.391, 988.450 1316.898 C 988.972 1316.404, 990.660 1316, 992.200 1316 C 993.740 1316, 995 1315.550, 995 1315 C 995 1314.450, 995.571 1314, 996.270 1314 C 997.631 1314, 1004.194 1310.620, 1013.646 1305.052 C 1016.866 1303.155, 1021.750 1300.411, 1024.500 1298.954 C 1038.279 1291.652, 1041.577 1289.813, 1042.450 1288.945 C 1042.973 1288.425, 1044.173 1288, 1045.117 1288 C 1046.061 1288, 1046.983 1287.648, 1047.167 1287.217 C 1047.350 1286.787, 1051.887 1284.269, 1057.249 1281.623 C 1062.611 1278.977, 1067.255 1276.397, 1067.568 1275.890 C 1067.882 1275.382, 1068.506 1275.195, 1068.956 1275.473 C 1069.405 1275.751, 1070.329 1275.308, 1071.009 1274.489 C 1071.689 1273.670, 1073.090 1273, 1074.122 1273 C 1075.155 1273, 1076 1272.550, 1076 1272 C 1076 1271.450, 1077.125 1271, 1078.500 1271 C 1079.875 1271, 1081 1270.550, 1081 1270 C 1081 1269.450, 1081.900 1269, 1083 1269 C 1084.100 1269, 1085 1268.550, 1085 1268 C 1085 1267.450, 1085.873 1267, 1086.941 1267 C 1088.009 1267, 1089.160 1266.550, 1089.500 1266 C 1089.840 1265.450, 1090.991 1265, 1092.059 1265 C 1093.127 1265, 1094 1264.550, 1094 1264 C 1094 1263.450, 1094.519 1263, 1095.154 1263 C 1096.245 1263, 1105.483 1259.038, 1109.236 1256.961 C 1110.191 1256.432, 1111.654 1256, 1112.486 1256 C 1113.319 1256, 1114 1255.550, 1114 1255 C 1114 1254.450, 1114.681 1254, 1115.514 1254 C 1116.346 1254, 1118.034 1253.480, 1119.264 1252.844 C 1123.960 1250.416, 1125.019 1250, 1126.500 1250 C 1127.340 1250, 1128.809 1249.603, 1129.764 1249.117 C 1130.719 1248.631, 1132.625 1247.787, 1134 1247.241 C 1135.375 1246.695, 1137.850 1245.668, 1139.500 1244.959 C 1141.150 1244.249, 1142.950 1243.532, 1143.500 1243.365 C 1148.666 1241.797, 1152 1240.381, 1152 1239.755 C 1152 1239.340, 1153.098 1239, 1154.441 1239 C 1155.784 1239, 1157.160 1238.550, 1157.500 1238 C 1157.840 1237.450, 1159.441 1237, 1161.059 1237 C 1162.677 1237, 1164 1236.550, 1164 1236 C 1164 1235.450, 1165.323 1235, 1166.941 1235 C 1168.559 1235, 1170.160 1234.550, 1170.500 1234 C 1170.840 1233.450, 1172.441 1233, 1174.059 1233 C 1175.677 1233, 1177 1232.550, 1177 1232 C 1177 1231.450, 1178.295 1231, 1179.878 1231 C 1181.460 1231, 1183.311 1230.330, 1183.991 1229.511 C 1184.671 1228.692, 1185.606 1228.256, 1186.069 1228.543 C 1186.533 1228.829, 1188.562 1228.374, 1190.578 1227.532 C 1192.594 1226.689, 1195.288 1226, 1196.563 1226 C 1197.838 1226, 1199.160 1225.550, 1199.500 1225 C 1199.840 1224.450, 1201.415 1224, 1203 1224 C 1204.585 1224, 1206.160 1223.550, 1206.500 1223 C 1206.840 1222.450, 1208.865 1222, 1211 1222 C 1213.135 1222, 1215.160 1221.550, 1215.500 1221 C 1215.840 1220.450, 1217.640 1220, 1219.500 1220 C 1221.360 1220, 1223.160 1219.550, 1223.500 1219 C 1223.840 1218.450, 1226.079 1218, 1228.476 1218 C 1230.872 1218, 1232.983 1217.589, 1233.167 1217.086 C 1233.350 1216.583, 1235.525 1216.055, 1238 1215.913 C 1240.475 1215.771, 1243.290 1215.265, 1244.255 1214.789 C 1245.221 1214.313, 1248.221 1213.766, 1250.922 1213.573 C 1253.623 1213.379, 1256.408 1212.866, 1257.111 1212.432 C 1258.776 1211.402, 1271.025 1209.967, 1283 1209.398 C 1288.225 1209.150, 1293.409 1208.488, 1294.519 1207.928 C 1297.834 1206.255, 1351.556 1208.205, 1353.450 1210.066 C 1353.972 1210.580, 1356.365 1211, 1358.766 1211 C 1361.167 1211, 1363.940 1211.433, 1364.928 1211.961 C 1365.916 1212.490, 1368.249 1213.186, 1370.112 1213.508 C 1375.151 1214.379, 1381.371 1216.224, 1382.450 1217.169 C 1382.972 1217.626, 1384.408 1218, 1385.641 1218 C 1386.874 1218, 1388.160 1218.450, 1388.500 1219 C 1388.840 1219.550, 1390.190 1220, 1391.500 1220 C 1392.810 1220, 1394.160 1220.450, 1394.500 1221 C 1394.840 1221.550, 1395.991 1222, 1397.059 1222 C 1398.127 1222, 1399 1222.450, 1399 1223 C 1399 1223.550, 1400.125 1224, 1401.500 1224 C 1402.875 1224, 1404 1224.450, 1404 1225 C 1404 1225.550, 1404.862 1226, 1405.917 1226 C 1406.971 1226, 1407.992 1226.475, 1408.185 1227.054 C 1408.378 1227.634, 1409.228 1228.210, 1410.074 1228.335 C 1410.920 1228.459, 1412.684 1229.559, 1413.994 1230.780 C 1415.305 1232.001, 1416.774 1233, 1417.258 1233 C 1418.138 1233, 1425.775 1238.029, 1429.337 1240.955 C 1432.812 1243.809, 1443 1254.328, 1443 1255.062 C 1443 1255.462, 1444.351 1257.299, 1446.003 1259.144 C 1450.572 1264.249, 1451 1264.833, 1451 1265.958 C 1451 1266.531, 1451.450 1267, 1452 1267 C 1452.550 1267, 1453 1267.900, 1453 1269 C 1453 1270.100, 1453.450 1271, 1454 1271 C 1454.550 1271, 1455 1271.900, 1455 1273 C 1455 1274.100, 1455.401 1275, 1455.892 1275 C 1456.382 1275, 1457.066 1276.125, 1457.411 1277.500 C 1457.756 1278.875, 1458.480 1280, 1459.019 1280 C 1459.559 1280, 1460 1280.874, 1460 1281.943 C 1460 1283.942, 1463.199 1290.150, 1465.827 1293.250 C 1466.643 1294.213, 1468.564 1295, 1470.096 1295 C 1471.628 1295, 1473.160 1295.450, 1473.500 1296 C 1475.420 1299.107, 1484.206 1295.506, 1489.231 1289.551 C 1490.184 1288.423, 1491.421 1286.956, 1491.981 1286.292 C 1492.542 1285.628, 1493 1284.390, 1493 1283.542 C 1493 1282.694, 1493.450 1282, 1494 1282 C 1494.550 1282, 1495 1281.318, 1495 1280.485 C 1495 1278.922, 1501.914 1267.760, 1503.250 1267.167 C 1503.662 1266.983, 1504 1266.426, 1504 1265.929 C 1504 1264.593, 1511.292 1254, 1512.212 1254 C 1512.645 1254, 1513 1253.264, 1513 1252.365 C 1513 1251.465, 1514.071 1249.737, 1515.379 1248.524 C 1516.688 1247.311, 1518.312 1245.285, 1518.988 1244.022 C 1519.665 1242.758, 1521.503 1240.324, 1523.073 1238.612 C 1524.643 1236.900, 1528.981 1232.171, 1532.714 1228.102 C 1536.446 1224.033, 1541.638 1218.447, 1544.250 1215.689 C 1546.862 1212.931, 1549 1210.490, 1549 1210.265 C 1549 1209.590, 1551.131 1207.719, 1559 1201.488 C 1563.125 1198.222, 1567.435 1194.638, 1568.577 1193.525 C 1569.719 1192.411, 1571.969 1190.514, 1573.577 1189.308 C 1575.185 1188.102, 1578.300 1185.750, 1580.500 1184.080 C 1582.700 1182.410, 1586.525 1179.598, 1589 1177.830 C 1591.475 1176.063, 1593.650 1174.253, 1593.833 1173.808 C 1594.017 1173.364, 1594.616 1173, 1595.165 1173 C 1595.714 1173, 1598.039 1171.519, 1600.332 1169.708 C 1602.624 1167.897, 1605.737 1165.796, 1607.250 1165.039 C 1608.763 1164.282, 1610 1163.288, 1610 1162.831 C 1610 1162.374, 1610.675 1162, 1611.500 1162 C 1612.325 1162, 1613.004 1161.662, 1613.008 1161.250 C 1613.012 1160.838, 1614.025 1160.004, 1615.258 1159.398 C 1622.683 1155.749, 1628 1152.603, 1628 1151.858 C 1628 1151.386, 1628.717 1151, 1629.592 1151 C 1630.468 1151, 1632.329 1150.100, 1633.727 1149 C 1635.126 1147.900, 1636.884 1147, 1637.635 1147 C 1638.386 1147, 1639 1146.550, 1639 1146 C 1639 1145.450, 1639.900 1145, 1641 1145 C 1642.100 1145, 1643 1144.660, 1643 1144.244 C 1643 1143.828, 1644.463 1142.898, 1646.250 1142.178 C 1648.037 1141.457, 1650.625 1140.207, 1652 1139.400 C 1654.571 1137.892, 1665.559 1132.644, 1670 1130.803 C 1671.375 1130.233, 1673.281 1129.369, 1674.236 1128.883 C 1675.191 1128.397, 1676.654 1128, 1677.486 1128 C 1678.319 1128, 1679 1127.550, 1679 1127 C 1679 1126.450, 1680.125 1126, 1681.500 1126 C 1682.875 1126, 1684 1125.550, 1684 1125 C 1684 1124.450, 1684.887 1124, 1685.970 1124 C 1687.054 1124, 1690.400 1122.875, 1693.406 1121.500 C 1696.412 1120.125, 1699.576 1119, 1700.436 1119 C 1701.296 1119, 1702 1118.550, 1702 1118 C 1702 1117.450, 1703.323 1117, 1704.941 1117 C 1706.559 1117, 1708.160 1116.550, 1708.500 1116 C 1708.840 1115.450, 1710.415 1115, 1712 1115 C 1713.585 1115, 1715.160 1114.550, 1715.500 1114 C 1715.840 1113.450, 1717.441 1113, 1719.059 1113 C 1720.677 1113, 1722 1112.597, 1722 1112.105 C 1722 1111.613, 1723.688 1110.955, 1725.750 1110.643 C 1734.993 1109.247, 1737.533 1108.690, 1738.004 1107.959 C 1738.282 1107.529, 1740.532 1106.927, 1743.004 1106.623 C 1749.843 1105.781, 1758 1103.703, 1758 1102.803 C 1758 1102.361, 1761.060 1102, 1764.800 1102 C 1768.540 1102, 1772.028 1101.574, 1772.550 1101.054 C 1773.072 1100.534, 1779.721 1100.019, 1787.325 1099.911 C 1799.715 1099.733, 1806.649 1098.684, 1808.648 1096.685 C 1809.025 1096.308, 1810.293 1096, 1811.466 1096 C 1812.639 1096, 1815.977 1093.894, 1818.884 1091.320 C 1824.070 1086.728, 1824.159 1086.555, 1823.656 1082.070 C 1822.924 1075.551, 1821.879 1071, 1821.114 1071 C 1820.751 1071, 1819.566 1069.313, 1818.480 1067.250 C 1817.394 1065.188, 1816.054 1063.018, 1815.502 1062.428 C 1814.951 1061.838, 1813.375 1059.704, 1812 1057.685 C 1810.625 1055.666, 1809.162 1054.011, 1808.750 1054.007 C 1808.338 1054.003, 1808 1053.138, 1808 1052.083 C 1808 1051.029, 1807.640 1050.017, 1807.199 1049.833 C 1806.054 1049.357, 1801 1040.014, 1801 1038.374 C 1801 1037.618, 1800.550 1037, 1800 1037 C 1799.450 1037, 1799 1036.100, 1799 1035 C 1799 1033.900, 1798.550 1033, 1798 1033 C 1797.450 1033, 1797 1031.902, 1797 1030.559 C 1797 1029.216, 1796.550 1027.840, 1796 1027.500 C 1795.450 1027.160, 1795 1026.064, 1795 1025.063 C 1795 1024.063, 1794.325 1022.685, 1793.500 1022 C 1792.675 1021.315, 1792 1019.460, 1792 1017.878 C 1792 1016.295, 1791.550 1015, 1791 1015 C 1790.450 1015, 1790 1013.650, 1790 1012 C 1790 1010.350, 1789.550 1009, 1789 1009 C 1788.450 1009, 1788 1007.476, 1788 1005.614 C 1788 1003.752, 1787.361 1000.996, 1786.579 999.490 C 1785.798 997.984, 1785.397 996.129, 1785.689 995.368 C 1785.981 994.607, 1785.495 992.879, 1784.610 991.527 C 1783.724 990.176, 1783 987.030, 1783 984.535 C 1783 982.041, 1782.550 980, 1782 980 C 1781.414 980, 1781 976.567, 1781 971.700 C 1781 967.135, 1780.536 962.936, 1779.968 962.368 C 1779.285 961.685, 1779.100 952.224, 1779.420 934.418 C 1779.999 902.199, 1780.810 888, 1782.069 888 C 1782.581 888, 1783 885.615, 1783 882.700 C 1783 879.785, 1783.494 876.906, 1784.098 876.302 C 1784.701 875.699, 1785.323 873.322, 1785.479 871.021 C 1785.635 868.720, 1786.266 866.334, 1786.882 865.718 C 1787.497 865.103, 1788 863.142, 1788 861.359 C 1788 859.576, 1788.450 857.840, 1789 857.500 C 1789.550 857.160, 1790 855.109, 1790 852.941 C 1790 850.773, 1790.450 849, 1791 849 C 1791.550 849, 1792.014 847.763, 1792.032 846.250 C 1792.049 844.737, 1792.726 842.624, 1793.536 841.552 C 1794.347 840.481, 1794.772 838.857, 1794.482 837.944 C 1794.192 837.030, 1794.640 835.714, 1795.477 835.019 C 1796.315 834.324, 1797 832.904, 1797 831.864 C 1797 830.824, 1797.450 829.079, 1798 827.986 C 1798.550 826.894, 1799.450 825.106, 1800 824.014 C 1800.550 822.921, 1801 821.176, 1801 820.136 C 1801 819.096, 1801.670 817.689, 1802.489 817.009 C 1803.308 816.329, 1803.763 815.425, 1803.500 815 C 1803.237 814.575, 1803.692 813.671, 1804.511 812.991 C 1805.330 812.311, 1806 810.685, 1806 809.378 C 1806 808.070, 1806.450 807, 1807 807 C 1807.550 807, 1808 806.100, 1808 805 C 1808 803.900, 1808.398 803, 1808.883 803 C 1809.369 803, 1810.031 802.212, 1810.354 801.250 C 1810.925 799.550, 1811.585 798.417, 1815.250 792.850 C 1816.213 791.388, 1817 789.511, 1817 788.679 C 1817 787.847, 1817.411 787.017, 1817.914 786.833 C 1818.417 786.650, 1818.957 784.475, 1819.115 782 C 1819.273 779.525, 1819.861 777.187, 1820.422 776.805 C 1821.104 776.339, 1821.038 774.994, 1820.221 772.734 C 1819.549 770.877, 1819 768.602, 1819 767.679 C 1819 766.756, 1818.550 766, 1818 766 C 1817.450 766, 1817 765.325, 1817 764.500 C 1817 763.247, 1814.944 763, 1804.500 763 C 1796.833 763, 1792 763.387, 1792 764 C 1792 764.550, 1791.169 765, 1790.154 765 C 1788.471 765, 1784.221 766.662, 1779.764 769.064 C 1778.809 769.579, 1777.346 770, 1776.514 770 C 1775.681 770, 1775 770.450, 1775 771 C 1775 771.550, 1773.875 772, 1772.500 772 C 1771.125 772, 1770 772.450, 1770 773 C 1770 773.550, 1768.650 774, 1767 774 C 1765.350 774, 1764 774.450, 1764 775 C 1764 775.550, 1762.875 776, 1761.500 776 C 1760.125 776, 1759 776.450, 1759 777 C 1759 777.550, 1757.650 778, 1756 778 C 1754.350 778, 1753 778.450, 1753 779 C 1753 779.550, 1751.965 780, 1750.700 780 C 1749.435 780, 1747.973 780.367, 1747.450 780.815 C 1746.928 781.263, 1742.450 782.879, 1737.500 784.406 C 1732.550 785.933, 1727.719 787.591, 1726.764 788.091 C 1725.809 788.591, 1724.148 789, 1723.073 789 C 1721.998 789, 1720.840 789.450, 1720.500 790 C 1720.160 790.550, 1718.360 791, 1716.500 791 C 1714.640 791, 1712.840 791.450, 1712.500 792 C 1712.160 792.550, 1710.334 793, 1708.441 793 C 1706.548 793, 1705 793.450, 1705 794 C 1705 794.550, 1703.227 795, 1701.059 795 C 1698.891 795, 1696.840 795.450, 1696.500 796 C 1696.160 796.550, 1694.580 797, 1692.988 797 C 1691.396 797, 1689.060 797.394, 1687.797 797.877 C 1684.674 799.068, 1676.270 801.101, 1672 801.698 C 1670.075 801.966, 1668.073 802.595, 1667.550 803.093 C 1667.028 803.592, 1664.215 804, 1661.300 804 C 1658.385 804, 1656 804.450, 1656 805 C 1656 805.583, 1652.667 806, 1648 806 C 1643.600 806, 1640 806.422, 1640 806.938 C 1640 809.869, 1554.533 809.865, 1551.550 806.934 C 1551.027 806.420, 1548.242 806, 1545.359 806 C 1542.476 806, 1539.840 805.550, 1539.500 805 C 1539.160 804.450, 1537.199 804, 1535.141 804 C 1533.083 804, 1530.973 803.607, 1530.450 803.128 C 1529.928 802.648, 1526.237 801.475, 1522.250 800.520 C 1518.263 799.566, 1515 798.383, 1515 797.892 C 1515 797.402, 1514.213 796.993, 1513.250 796.985 C 1511.204 796.967, 1504.349 794.682, 1503.352 793.685 C 1502.975 793.308, 1501.842 793, 1500.833 793 C 1499.825 793, 1499 792.550, 1499 792 C 1499 791.450, 1498.100 791, 1497 791 C 1495.900 791, 1495 790.550, 1495 790 C 1495 789.450, 1494.100 789, 1493 789 C 1491.900 789, 1491 788.550, 1491 788 C 1491 787.450, 1490.325 787, 1489.500 787 C 1488.675 787, 1488 786.550, 1488 786 C 1488 785.450, 1487.100 785, 1486 785 C 1484.900 785, 1484 784.562, 1484 784.026 C 1484 783.490, 1482.629 782.342, 1480.953 781.476 C 1477.027 779.445, 1475.447 778.135, 1465.363 768.550 C 1460.763 764.177, 1456.992 760.127, 1456.983 759.550 C 1456.973 758.972, 1455.848 757.440, 1454.483 756.145 C 1453.117 754.850, 1452 753.162, 1452 752.395 C 1452 751.628, 1451.550 751, 1451 751 C 1450.450 751, 1450 750.325, 1450 749.500 C 1450 748.675, 1449.550 748, 1449 748 C 1448.450 748, 1448 747.100, 1448 746 C 1448 744.900, 1447.662 743.997, 1447.250 743.994 C 1446.120 743.984, 1443 738.100, 1443 735.978 C 1443 734.955, 1442.550 733.840, 1442 733.500 C 1441.450 733.160, 1441 731.559, 1441 729.941 C 1441 728.323, 1440.550 727, 1440 727 C 1439.450 727, 1439 725.227, 1439 723.059 C 1439 720.891, 1438.619 718.883, 1438.153 718.595 C 1437.688 718.307, 1437.032 713.562, 1436.696 708.050 C 1436.003 696.670, 1435.469 695.316, 1429.100 688.776 C 1424.714 684.271, 1424.244 684.052, 1419 684.057 C 1414.909 684.062, 1412.731 684.628, 1410.500 686.269" stroke="none" fill="#f47404" fill-rule="evenodd"/><path d="" stroke="none" fill="#f46c04" fill-rule="evenodd"/></svg>